<svg width="50" height="50" viewBox="0 0 50 50" fill="none" xmlns="http://www.w3.org/2000/svg">
<g filter="url(#filter0_ii_5082_27086)">
<ellipse cx="24.9982" cy="25.0003" rx="22.7872" ry="22.5237" fill="url(#paint0_radial_5082_27086)"/>
<ellipse cx="24.9982" cy="25.0003" rx="22.7872" ry="22.5237" fill="url(#paint1_radial_5082_27086)" fill-opacity="0.5"/>
</g>
<g style="mix-blend-mode:plus-darker">
<g filter="url(#filter1_f_5082_27086)">
<circle cx="15.1959" cy="23.8991" r="3.46938" fill="#4B3EFF" fill-opacity="0.2"/>
</g>
<g filter="url(#filter2_f_5082_27086)">
<circle cx="36.5475" cy="23.8991" r="3.46938" fill="#4B3EFF" fill-opacity="0.2"/>
</g>
</g>
<path d="M22.3125 27.2578C24.3463 29.1577 27.4912 29.1998 29.5751 27.355L29.6848 27.2578" stroke="#09235F" stroke-width="1.50574" stroke-linecap="round"/>
<g filter="url(#filter3_di_5082_27086)">
<path d="M23.9526 20.9088C22.7955 23.4544 20.1375 24.959 18.6433 25.5238C18.3905 25.6193 18.1138 25.6195 17.8609 25.5242C16.3631 24.9598 13.7092 23.4551 12.5518 20.9088C11.8297 19.3254 11.8551 16.8552 14.1352 15.8418C16.4154 14.8284 17.8278 16.4752 18.2522 17.4252C18.6702 16.4752 20.089 14.8284 22.3691 15.8418C24.6493 16.8552 24.6746 19.3254 23.9526 20.9088Z" fill="url(#paint2_linear_5082_27086)"/>
<path d="M23.9526 20.9088C22.7955 23.4544 20.1375 24.959 18.6433 25.5238C18.3905 25.6193 18.1138 25.6195 17.8609 25.5242C16.3631 24.9598 13.7092 23.4551 12.5518 20.9088C11.8297 19.3254 11.8551 16.8552 14.1352 15.8418C16.4154 14.8284 17.8278 16.4752 18.2522 17.4252C18.6702 16.4752 20.089 14.8284 22.3691 15.8418C24.6493 16.8552 24.6746 19.3254 23.9526 20.9088Z" fill="url(#paint3_radial_5082_27086)"/>
<path d="M39.1869 20.9088C38.0298 23.4544 35.3718 24.959 33.8777 25.5238C33.6249 25.6193 33.3481 25.6195 33.0953 25.5242C31.5974 24.9598 28.9436 23.4551 27.7862 20.9088C27.0641 19.3254 27.0894 16.8552 29.3696 15.8418C31.6498 14.8284 33.0622 16.4752 33.4865 17.4252C33.9046 16.4752 35.3233 14.8284 37.6035 15.8418C39.8837 16.8552 39.909 19.3254 39.1869 20.9088Z" fill="url(#paint4_linear_5082_27086)"/>
<path d="M39.1869 20.9088C38.0298 23.4544 35.3718 24.959 33.8777 25.5238C33.6249 25.6193 33.3481 25.6195 33.0953 25.5242C31.5974 24.9598 28.9436 23.4551 27.7862 20.9088C27.0641 19.3254 27.0894 16.8552 29.3696 15.8418C31.6498 14.8284 33.0622 16.4752 33.4865 17.4252C33.9046 16.4752 35.3233 14.8284 37.6035 15.8418C39.8837 16.8552 39.909 19.3254 39.1869 20.9088Z" fill="url(#paint5_radial_5082_27086)"/>
</g>
<defs>
<filter id="filter0_ii_5082_27086" x="1.90979" y="2.17541" width="46.1804" height="45.6492" filterUnits="userSpaceOnUse" color-interpolation-filters="sRGB">
<feFlood flood-opacity="0" result="BackgroundImageFix"/>
<feBlend mode="normal" in="SourceGraphic" in2="BackgroundImageFix" result="shape"/>
<feColorMatrix in="SourceAlpha" type="matrix" values="0 0 0 0 0 0 0 0 0 0 0 0 0 0 0 0 0 0 127 0" result="hardAlpha"/>
<feOffset dx="0.301148" dy="-0.301148"/>
<feGaussianBlur stdDeviation="1.50574"/>
<feComposite in2="hardAlpha" operator="arithmetic" k2="-1" k3="1"/>
<feColorMatrix type="matrix" values="0 0 0 0 0.348088 0 0 0 0 0.493767 0 0 0 0 1 0 0 0 0.3 0"/>
<feBlend mode="normal" in2="shape" result="effect1_innerShadow_5082_27086"/>
<feColorMatrix in="SourceAlpha" type="matrix" values="0 0 0 0 0 0 0 0 0 0 0 0 0 0 0 0 0 0 127 0" result="hardAlpha"/>
<feOffset dx="-0.301148" dy="0.301148"/>
<feGaussianBlur stdDeviation="0.602295"/>
<feComposite in2="hardAlpha" operator="arithmetic" k2="-1" k3="1"/>
<feColorMatrix type="matrix" values="0 0 0 0 1 0 0 0 0 1 0 0 0 0 1 0 0 0 0.2 0"/>
<feBlend mode="normal" in2="effect1_innerShadow_5082_27086" result="effect2_innerShadow_5082_27086"/>
</filter>
<filter id="filter1_f_5082_27086" x="6.77439" y="15.4775" width="16.8418" height="16.8418" filterUnits="userSpaceOnUse" color-interpolation-filters="sRGB">
<feFlood flood-opacity="0" result="BackgroundImageFix"/>
<feBlend mode="normal" in="SourceGraphic" in2="BackgroundImageFix" result="shape"/>
<feGaussianBlur stdDeviation="2.47609" result="effect1_foregroundBlur_5082_27086"/>
</filter>
<filter id="filter2_f_5082_27086" x="28.126" y="15.4775" width="16.8418" height="16.8418" filterUnits="userSpaceOnUse" color-interpolation-filters="sRGB">
<feFlood flood-opacity="0" result="BackgroundImageFix"/>
<feBlend mode="normal" in="SourceGraphic" in2="BackgroundImageFix" result="shape"/>
<feGaussianBlur stdDeviation="2.47609" result="effect1_foregroundBlur_5082_27086"/>
</filter>
<filter id="filter3_di_5082_27086" x="11.4626" y="14.8532" width="28.817" height="12.081" filterUnits="userSpaceOnUse" color-interpolation-filters="sRGB">
<feFlood flood-opacity="0" result="BackgroundImageFix"/>
<feColorMatrix in="SourceAlpha" type="matrix" values="0 0 0 0 0 0 0 0 0 0 0 0 0 0 0 0 0 0 127 0" result="hardAlpha"/>
<feOffset dy="0.670213"/>
<feGaussianBlur stdDeviation="0.335106"/>
<feComposite in2="hardAlpha" operator="out"/>
<feColorMatrix type="matrix" values="0 0 0 0 0.120505 0 0 0 0 0.220967 0 0 0 0 0.566143 0 0 0 0.15 0"/>
<feBlend mode="normal" in2="BackgroundImageFix" result="effect1_dropShadow_5082_27086"/>
<feBlend mode="normal" in="SourceGraphic" in2="effect1_dropShadow_5082_27086" result="shape"/>
<feColorMatrix in="SourceAlpha" type="matrix" values="0 0 0 0 0 0 0 0 0 0 0 0 0 0 0 0 0 0 127 0" result="hardAlpha"/>
<feOffset dx="0.670213" dy="-0.670213"/>
<feGaussianBlur stdDeviation="1.34043"/>
<feComposite in2="hardAlpha" operator="arithmetic" k2="-1" k3="1"/>
<feColorMatrix type="matrix" values="0 0 0 0 0.847059 0 0 0 0 0.223529 0 0 0 0 0.356863 0 0 0 1 0"/>
<feBlend mode="normal" in2="shape" result="effect2_innerShadow_5082_27086"/>
</filter>
<radialGradient id="paint0_radial_5082_27086" cx="0" cy="0" r="1" gradientTransform="matrix(-6.53065 27.5739 -27.9364 -6.91427 28.4348 16.7428)" gradientUnits="userSpaceOnUse">
<stop stop-color="#EEF1FF"/>
<stop offset="1" stop-color="#5178FF"/>
</radialGradient>
<radialGradient id="paint1_radial_5082_27086" cx="0" cy="0" r="1" gradientTransform="matrix(-10.1943 26.9372 -27.2523 -10.6284 31.5945 16.1734)" gradientUnits="userSpaceOnUse">
<stop stop-color="#EAECFF"/>
<stop offset="1" stop-color="#EAECFF" stop-opacity="0"/>
</radialGradient>
<linearGradient id="paint2_linear_5082_27086" x1="18.2522" y1="15.5234" x2="18.2522" y2="25.6591" gradientUnits="userSpaceOnUse">
<stop stop-color="#FF4686"/>
<stop offset="1" stop-color="#E43B5A"/>
</linearGradient>
<radialGradient id="paint3_radial_5082_27086" cx="0" cy="0" r="1" gradientUnits="userSpaceOnUse" gradientTransform="translate(13.6041 18.885) rotate(43.0251) scale(6.87581 8.30247)">
<stop stop-color="#DEF3FF" stop-opacity="0.3"/>
<stop offset="1" stop-color="white" stop-opacity="0"/>
</radialGradient>
<linearGradient id="paint4_linear_5082_27086" x1="33.4865" y1="15.5234" x2="33.4865" y2="25.6591" gradientUnits="userSpaceOnUse">
<stop stop-color="#FF4686"/>
<stop offset="1" stop-color="#E43B5A"/>
</linearGradient>
<radialGradient id="paint5_radial_5082_27086" cx="0" cy="0" r="1" gradientUnits="userSpaceOnUse" gradientTransform="translate(28.8385 18.885) rotate(43.0251) scale(6.87581 8.30247)">
<stop stop-color="#DEF3FF" stop-opacity="0.3"/>
<stop offset="1" stop-color="white" stop-opacity="0"/>
</radialGradient>
</defs>
</svg>
