<svg width="295" height="93" viewBox="0 0 295 93" fill="none" xmlns="http://www.w3.org/2000/svg">
<rect y="29" width="42" height="5" fill="#3E4FFF"/>
<rect x="50" width="195" height="5" fill="#3E4FFF"/>
<rect x="253" y="26" width="42" height="5" fill="#3E4FFF"/>
<rect opacity="0.2" width="195" height="44" transform="matrix(1 0 0 -1 50 44)" fill="#3E4FFF"/>
<rect opacity="0.2" width="42" height="15" transform="matrix(1 0 0 -1 0 44)" fill="#3E4FFF"/>
<rect opacity="0.2" width="42" height="15" transform="matrix(1 0 0 -1 253 44)" fill="#3E4FFF"/>
<path d="M137.556 66.1367C135.492 66.1367 133.988 64.9199 133.947 63.2109H135.943C135.984 63.9902 136.695 64.5098 137.556 64.5098C138.582 64.5098 139.306 63.7852 139.306 62.7598C139.306 61.707 138.568 60.9824 137.529 60.9688C136.791 60.9688 136.271 61.2422 135.971 61.8027H134.111L134.644 56.1016H140.742V57.7832H136.34L136.066 60.2852H136.148C136.517 59.793 137.256 59.4512 138.131 59.4512C139.949 59.4512 141.303 60.8047 141.303 62.7051C141.303 64.7012 139.785 66.1367 137.556 66.1367ZM146.339 66.1367C143.864 66.1367 142.36 64.291 142.36 61.0508C142.36 57.8105 143.864 55.9648 146.339 55.9648C148.813 55.9648 150.317 57.8242 150.317 61.0508C150.317 64.3047 148.813 66.1367 146.339 66.1367ZM146.339 64.4414C147.487 64.4414 148.226 63.334 148.212 61.0508C148.212 58.7949 147.487 57.6465 146.339 57.6465C145.19 57.6465 144.466 58.7949 144.466 61.0508C144.452 63.334 145.19 64.4414 146.339 64.4414ZM162.504 61.2012V62.5684H157.815V64.5781H156.092V62.5684H151.115V61.2012H162.504ZM161.246 65.6445V67.0391H152.455V63.5938H154.178V65.6445H161.246ZM154.301 55.2129V56.5117H159.291V55.2129H161.028V60.3262H152.578V55.2129H154.301ZM154.301 58.9453H159.291V57.8105H154.301V58.9453Z" fill="#4C46FC"/>
<path d="M146.555 75.9531V88.1348H145.489V81.5312H143.123V80.6289H145.489V75.9531H146.555ZM142.385 77.0879V81.3398H138.024V84.293C140.116 84.293 141.633 84.2314 143.411 83.8965L143.493 84.7988C141.661 85.127 140.088 85.1953 137.887 85.209H136.957V80.4512H141.346V77.9766H136.916V77.0879H142.385ZM158.4 75.9531V83.2539H157.334V75.9531H158.4ZM150.238 76.7598V81.2578C152.384 81.251 154.121 81.1279 156.007 80.7109L156.158 81.6133C154.162 82.0371 152.371 82.1738 150.142 82.1602H149.158V76.7598H150.238ZM154.353 83.3223C156.882 83.3223 158.455 84.2109 158.455 85.7148C158.455 87.2051 156.882 88.0801 154.353 88.0801C151.81 88.0801 150.238 87.2051 150.238 85.7148C150.238 84.2109 151.81 83.3223 154.353 83.3223ZM154.353 84.2109C152.466 84.2109 151.318 84.7578 151.318 85.7148C151.318 86.6445 152.466 87.2188 154.353 87.2188C156.226 87.2188 157.375 86.6445 157.388 85.7148C157.375 84.7578 156.226 84.2109 154.353 84.2109Z" fill="#82878F"/>
<path d="M15.0775 66.1367C13.0131 66.1367 11.5092 64.9199 11.4682 63.2109H13.4643C13.5053 63.9902 14.2162 64.5098 15.0775 64.5098C16.1029 64.5098 16.8275 63.7852 16.8275 62.7598C16.8275 61.707 16.0893 60.9824 15.0502 60.9688C14.3119 60.9688 13.7924 61.2422 13.4916 61.8027H11.6322L12.1654 56.1016H18.2631V57.7832H13.8607L13.5873 60.2852H13.6693C14.0385 59.793 14.7768 59.4512 15.6518 59.4512C17.4701 59.4512 18.8236 60.8047 18.8236 62.7051C18.8236 64.7012 17.3061 66.1367 15.0775 66.1367ZM30.983 61.2012V62.5684H26.2936V64.5781H24.5709V62.5684H19.5943V61.2012H30.983ZM29.7252 65.6445V67.0391H20.9342V63.5938H22.6568V65.6445H29.7252ZM22.7799 55.2129V56.5117H27.7701V55.2129H29.5064V60.3262H21.0572V55.2129H22.7799ZM22.7799 58.9453H27.7701V57.8105H22.7799V58.9453Z" fill="#4C46FC"/>
<path d="M19.5141 75.9668V83.7734H18.434V82.9258H15.8363V82.1602H18.434V75.9668H19.5141ZM9.42422 80.8887C11.6801 80.8887 14.7152 80.8613 17.3402 80.5332L17.4086 81.3125C16.2465 81.4971 15.016 81.6064 13.8129 81.668V83.7188H12.7602V81.709C11.6049 81.7568 10.5111 81.7637 9.56094 81.7637L9.42422 80.8887ZM19.5141 84.2246V87.9434H11.475V84.2246H19.5141ZM12.5551 85.0996V87.0547H18.4613V85.0996H12.5551ZM13.4164 76.2539C15.2211 76.2539 16.4242 77.0059 16.4379 78.1953C16.4242 79.3848 15.2211 80.123 13.4164 80.1094C11.598 80.123 10.3949 79.3848 10.3949 78.1953C10.3949 77.0059 11.598 76.2539 13.4164 76.2539ZM13.4164 77.0469C12.1996 77.0469 11.393 77.498 11.4066 78.1953C11.393 78.8789 12.1996 79.3301 13.4164 79.3301C14.6195 79.3301 15.4262 78.8789 15.4262 78.1953C15.4262 77.498 14.6195 77.0469 13.4164 77.0469ZM24.7418 76.5273C26.3756 76.5137 27.6129 77.4639 27.8453 78.8652H30.3883V75.9531H31.4684V82.4746H30.3883V79.7539H27.859C27.6402 81.1895 26.3893 82.1465 24.7418 82.1465C22.8961 82.1465 21.5836 80.998 21.5836 79.3301C21.5836 77.6758 22.8961 76.5137 24.7418 76.5273ZM24.7418 77.4434C23.4977 77.4297 22.609 78.209 22.609 79.3301C22.609 80.4375 23.4977 81.2441 24.7418 81.2441C25.9723 81.2441 26.8473 80.4375 26.8473 79.3301C26.8473 78.209 25.9723 77.4297 24.7418 77.4434ZM24.7145 83.0898V84.6348H30.3883V83.0898H31.4684V87.9434H23.6344V83.0898H24.7145ZM24.7145 87.0684H30.3883V85.4961H24.7145V87.0684Z" fill="#82878F"/>
<path d="M268.078 66.1367C266.013 66.1367 264.509 64.9199 264.468 63.2109H266.464C266.505 63.9902 267.216 64.5098 268.078 64.5098C269.103 64.5098 269.828 63.7852 269.828 62.7598C269.828 61.707 269.089 60.9824 268.05 60.9688C267.312 60.9688 266.792 61.2422 266.492 61.8027H264.632L265.165 56.1016H271.263V57.7832H266.861L266.587 60.2852H266.669C267.038 59.793 267.777 59.4512 268.652 59.4512C270.47 59.4512 271.824 60.8047 271.824 62.7051C271.824 64.7012 270.306 66.1367 268.078 66.1367ZM283.983 61.2012V62.5684H279.294V64.5781H277.571V62.5684H272.594V61.2012H283.983ZM282.725 65.6445V67.0391H273.934V63.5938H275.657V65.6445H282.725ZM275.78 55.2129V56.5117H280.77V55.2129H282.506V60.3262H274.057V55.2129H275.78ZM275.78 58.9453H280.77V57.8105H275.78V58.9453Z" fill="#4C46FC"/>
<path d="M266.209 76.5137V77.4023C266.209 78.3252 266.209 79.4121 265.922 80.834H267.617V81.6953H262.599V82.9941H266.304V85.8105H258.949V87.082H266.728V87.9434H257.883V85.0039H265.238V83.8281H257.855V82.9941H261.547V81.6953H256.556V80.834H264.842C264.958 80.2734 265.026 79.7676 265.074 79.3027L257.801 79.6172L257.664 78.7559L265.129 78.5371C265.142 78.1406 265.142 77.7646 265.142 77.4023V77.375H257.951V76.5137H266.209ZM277.849 75.9531V80.7656H279.886V81.668H277.849V88.1348H276.782V75.9531H277.849ZM274.649 77.1426V78.0312H270.042V84.1836C272.243 84.1836 273.802 84.0811 275.606 83.7461L275.743 84.6758C273.843 85.0176 272.243 85.0859 269.933 85.0859H268.976V77.1426H274.649ZM291.457 82.1328V83.0215H286.522V85.5098H285.442V83.0215H280.328V82.1328H291.457ZM290.213 86.9316V87.8477H281.764V84.293H282.844V86.9316H290.213ZM285.879 76.2676C288.477 76.2812 290.158 77.2109 290.158 78.7148C290.158 80.2188 288.477 81.1348 285.879 81.1348C283.281 81.1348 281.586 80.2188 281.586 78.7148C281.586 77.2109 283.281 76.2812 285.879 76.2676ZM285.879 77.1426C283.992 77.1426 282.721 77.7441 282.735 78.7148C282.721 79.6582 283.992 80.2598 285.879 80.2598C287.766 80.2598 289.024 79.6582 289.024 78.7148C289.024 77.7441 287.766 77.1426 285.879 77.1426Z" fill="#82878F"/>
</svg>
