<svg width="25" height="24" viewBox="0 0 25 24" fill="none" xmlns="http://www.w3.org/2000/svg">
<mask id="mask0_1210_10235" style="mask-type:alpha" maskUnits="userSpaceOnUse" x="0" y="0" width="25" height="24">
<rect x="0.5" width="24" height="24" fill="#D9D9D9"/>
</mask>
<g mask="url(#mask0_1210_10235)">
<path d="M12.5 21.325C12.2667 21.325 12.0333 21.2833 11.8 21.2C11.5667 21.1167 11.3583 20.9917 11.175 20.825C10.0917 19.825 9.13333 18.85 8.3 17.9C7.46667 16.95 6.77083 16.0292 6.2125 15.1375C5.65417 14.2458 5.22917 13.3875 4.9375 12.5625C4.64583 11.7375 4.5 10.95 4.5 10.2C4.5 7.7 5.30417 5.70833 6.9125 4.225C8.52083 2.74167 10.3833 2 12.5 2C14.6167 2 16.4792 2.74167 18.0875 4.225C19.6958 5.70833 20.5 7.7 20.5 10.2C20.5 10.95 20.3542 11.7375 20.0625 12.5625C19.7708 13.3875 19.3458 14.2458 18.7875 15.1375C18.2292 16.0292 17.5333 16.95 16.7 17.9C15.8667 18.85 14.9083 19.825 13.825 20.825C13.6417 20.9917 13.4333 21.1167 13.2 21.2C12.9667 21.2833 12.7333 21.325 12.5 21.325ZM12.5 12C13.05 12 13.5208 11.8042 13.9125 11.4125C14.3042 11.0208 14.5 10.55 14.5 10C14.5 9.45 14.3042 8.97917 13.9125 8.5875C13.5208 8.19583 13.05 8 12.5 8C11.95 8 11.4792 8.19583 11.0875 8.5875C10.6958 8.97917 10.5 9.45 10.5 10C10.5 10.55 10.6958 11.0208 11.0875 11.4125C11.4792 11.8042 11.95 12 12.5 12Z" fill="#82878F"/>
</g>
</svg>
