<svg width="25" height="24" viewBox="0 0 25 24" fill="none" xmlns="http://www.w3.org/2000/svg">
<mask id="mask0_1210_10243" style="mask-type:alpha" maskUnits="userSpaceOnUse" x="0" y="0" width="25" height="24">
<rect x="0.5" width="24" height="24" fill="#D9D9D9"/>
</mask>
<g mask="url(#mask0_1210_10243)">
<path d="M13.5 11.6V8C13.5 7.71667 13.4042 7.47917 13.2125 7.2875C13.0208 7.09583 12.7833 7 12.5 7C12.2167 7 11.9792 7.09583 11.7875 7.2875C11.5958 7.47917 11.5 7.71667 11.5 8V11.975C11.5 12.1083 11.525 12.2375 11.575 12.3625C11.625 12.4875 11.7 12.6 11.8 12.7L15.1 16C15.2833 16.1833 15.5167 16.275 15.8 16.275C16.0833 16.275 16.3167 16.1833 16.5 16C16.6833 15.8167 16.775 15.5833 16.775 15.3C16.775 15.0167 16.6833 14.7833 16.5 14.6L13.5 11.6ZM12.5 22C11.1167 22 9.81667 21.7375 8.6 21.2125C7.38333 20.6875 6.325 19.975 5.425 19.075C4.525 18.175 3.8125 17.1167 3.2875 15.9C2.7625 14.6833 2.5 13.3833 2.5 12C2.5 10.6167 2.7625 9.31667 3.2875 8.1C3.8125 6.88333 4.525 5.825 5.425 4.925C6.325 4.025 7.38333 3.3125 8.6 2.7875C9.81667 2.2625 11.1167 2 12.5 2C13.8833 2 15.1833 2.2625 16.4 2.7875C17.6167 3.3125 18.675 4.025 19.575 4.925C20.475 5.825 21.1875 6.88333 21.7125 8.1C22.2375 9.31667 22.5 10.6167 22.5 12C22.5 13.3833 22.2375 14.6833 21.7125 15.9C21.1875 17.1167 20.475 18.175 19.575 19.075C18.675 19.975 17.6167 20.6875 16.4 21.2125C15.1833 21.7375 13.8833 22 12.5 22Z" fill="#82878F"/>
</g>
</svg>
