<svg width="20" height="20" viewBox="0 0 20 20" fill="none" xmlns="http://www.w3.org/2000/svg">
<path d="M9.47168 1.61719C13.8074 1.61719 17.3262 5.13599 17.3262 9.47168C17.3261 9.73803 17.3103 10.0011 17.2842 10.2607C16.8962 9.94848 16.4609 9.69327 15.9912 9.50684C15.9913 9.49512 15.9922 9.48341 15.9922 9.47168C15.9922 5.87237 13.071 2.95117 9.47168 2.95117C5.87252 2.95135 2.95117 5.87248 2.95117 9.47168C2.95152 13.0706 5.87274 15.992 9.47168 15.9922C9.48428 15.9922 9.49718 15.9903 9.50977 15.9902C9.69659 16.4605 9.95165 16.8968 10.2646 17.2852C10.0034 17.3113 9.73868 17.3262 9.47168 17.3262C5.13636 17.326 1.61754 13.807 1.61719 9.47168C1.61719 5.1361 5.13614 1.61736 9.47168 1.61719ZM6.22754 11.0459C6.48007 10.7782 6.90208 10.7653 7.16992 11.0176C7.86132 11.6697 8.79192 11.9625 9.69922 11.9033C9.48743 12.3197 9.33137 12.7687 9.24316 13.2412C8.15741 13.1898 7.08642 12.7727 6.25488 11.9883C5.98739 11.7359 5.97577 11.3138 6.22754 11.0459ZM7.28711 7.07617C7.72803 7.07617 8.0857 7.43316 8.08594 7.87402C8.08576 8.31493 7.72806 8.67285 7.28711 8.67285C6.84636 8.67262 6.48846 8.31479 6.48828 7.87402C6.48852 7.43331 6.84639 7.07641 7.28711 7.07617ZM11.6523 7.07617C12.0933 7.07617 12.4509 7.43316 12.4512 7.87402C12.451 8.31493 12.0933 8.67285 11.6523 8.67285C11.2116 8.67262 10.8537 8.31479 10.8535 7.87402C10.8537 7.43331 11.2116 7.07641 11.6523 7.07617Z" fill="#3B3E43"/>
<path d="M14.2139 10.0469C16.5054 10.0471 18.3799 11.9223 18.3799 14.2139C18.3797 16.5053 16.5053 18.3797 14.2139 18.3799C11.9223 18.3799 10.0471 16.5054 10.0469 14.2139C10.0469 11.9222 11.9222 10.0469 14.2139 10.0469ZM14.2139 12.1328C13.9837 12.1328 13.7969 12.3197 13.7969 12.5498V13.7979H12.5439C12.3138 13.7979 12.127 13.9847 12.127 14.2148C12.1271 14.4448 12.3139 14.6318 12.5439 14.6318H13.7969V15.8828C13.7971 16.1128 13.9839 16.2998 14.2139 16.2998C14.4437 16.2996 14.6307 16.1127 14.6309 15.8828V14.6318H15.877C16.1068 14.6317 16.2938 14.4447 16.2939 14.2148C16.2939 13.9848 16.1069 13.798 15.877 13.7979H14.6309V12.5498C14.6309 12.3198 14.4438 12.133 14.2139 12.1328Z" fill="#3B3E43"/>
</svg>
