<svg width="55" height="25" viewBox="0 0 55 25" fill="none" xmlns="http://www.w3.org/2000/svg">
<path d="M42.5 0.5C49.1274 0.5 54.5 5.87258 54.5 12.5C54.5 19.1274 49.1274 24.5 42.5 24.5C35.8726 24.5 30.5 19.1274 30.5 12.5C30.5 5.87258 35.8726 0.5 42.5 0.5Z" fill="#F0F3F8"/>
<path d="M42.5 0.5C49.1274 0.5 54.5 5.87258 54.5 12.5C54.5 19.1274 49.1274 24.5 42.5 24.5C35.8726 24.5 30.5 19.1274 30.5 12.5C30.5 5.87258 35.8726 0.5 42.5 0.5Z" stroke="white"/>
<g filter="url(#filter0_ii_796_275)">
<ellipse cx="42.5002" cy="12.4999" rx="8.76289" ry="8.66156" fill="url(#paint0_radial_796_275)"/>
<ellipse cx="42.5002" cy="12.4999" rx="8.76289" ry="8.66156" fill="url(#paint1_radial_796_275)" fill-opacity="0.5"/>
</g>
<g style="mix-blend-mode:plus-darker">
<g filter="url(#filter1_f_796_275)">
<circle cx="38.7267" cy="12.0846" r="1.33416" fill="#4B3EFF" fill-opacity="0.2"/>
</g>
<g filter="url(#filter2_f_796_275)">
<circle cx="46.9416" cy="12.0846" r="1.33416" fill="#4B3EFF" fill-opacity="0.2"/>
</g>
</g>
<ellipse cx="41.1952" cy="10.4536" rx="0.579035" ry="0.694843" fill="#09235F"/>
<ellipse cx="44.4785" cy="10.4536" rx="0.579035" ry="0.694843" fill="#09235F"/>
<path d="M41.7695 12.2002C42.2923 12.8974 43.3334 12.9109 43.8741 12.2275L43.8957 12.2002" stroke="#09235F" stroke-width="0.602295" stroke-linecap="round"/>
<path d="M27.5 0.5C34.1274 0.5 39.5 5.87258 39.5 12.5C39.5 19.1274 34.1274 24.5 27.5 24.5C20.8726 24.5 15.5 19.1274 15.5 12.5C15.5 5.87258 20.8726 0.5 27.5 0.5Z" fill="#F0F3F8"/>
<path d="M27.5 0.5C34.1274 0.5 39.5 5.87258 39.5 12.5C39.5 19.1274 34.1274 24.5 27.5 24.5C20.8726 24.5 15.5 19.1274 15.5 12.5C15.5 5.87258 20.8726 0.5 27.5 0.5Z" stroke="white"/>
<g filter="url(#filter3_ii_796_275)">
<ellipse cx="27.5002" cy="12.4999" rx="8.76289" ry="8.66156" fill="url(#paint2_radial_796_275)"/>
<ellipse cx="27.5002" cy="12.4999" rx="8.76289" ry="8.66156" fill="url(#paint3_radial_796_275)" fill-opacity="0.5"/>
</g>
<g style="mix-blend-mode:plus-darker">
<g filter="url(#filter4_f_796_275)">
<circle cx="23.7267" cy="12.0846" r="1.33416" fill="#4B3EFF" fill-opacity="0.2"/>
</g>
<g filter="url(#filter5_f_796_275)">
<circle cx="31.9416" cy="12.0846" r="1.33416" fill="#4B3EFF" fill-opacity="0.2"/>
</g>
</g>
<ellipse cx="26.1952" cy="10.4536" rx="0.579035" ry="0.694843" fill="#09235F"/>
<ellipse cx="29.4784" cy="10.4536" rx="0.579035" ry="0.694843" fill="#09235F"/>
<path d="M26.7695 12.2002C27.2923 12.8974 28.3334 12.9109 28.8741 12.2275L28.8957 12.2002" stroke="#09235F" stroke-width="0.602295" stroke-linecap="round"/>
<path d="M12.5 0.5C19.1274 0.5 24.5 5.87258 24.5 12.5C24.5 19.1274 19.1274 24.5 12.5 24.5C5.87258 24.5 0.5 19.1274 0.5 12.5C0.5 5.87258 5.87258 0.5 12.5 0.5Z" fill="#3E4FFF"/>
<path d="M12.5 0.5C19.1274 0.5 24.5 5.87258 24.5 12.5C24.5 19.1274 19.1274 24.5 12.5 24.5C5.87258 24.5 0.5 19.1274 0.5 12.5C0.5 5.87258 5.87258 0.5 12.5 0.5Z" stroke="white"/>
<g filter="url(#filter6_ii_796_275)">
<ellipse cx="12.5002" cy="12.4999" rx="8.76289" ry="8.66156" fill="url(#paint4_radial_796_275)"/>
<ellipse cx="12.5002" cy="12.4999" rx="8.76289" ry="8.66156" fill="url(#paint5_radial_796_275)" fill-opacity="0.5"/>
</g>
<g style="mix-blend-mode:plus-darker">
<g filter="url(#filter7_f_796_275)">
<circle cx="8.72674" cy="12.0846" r="1.33416" fill="#4B3EFF" fill-opacity="0.2"/>
</g>
<g filter="url(#filter8_f_796_275)">
<circle cx="16.9416" cy="12.0846" r="1.33416" fill="#4B3EFF" fill-opacity="0.2"/>
</g>
</g>
<ellipse cx="11.1952" cy="10.4536" rx="0.579035" ry="0.694843" fill="#09235F"/>
<ellipse cx="14.4784" cy="10.4536" rx="0.579035" ry="0.694843" fill="#09235F"/>
<path d="M11.7695 12.2002C12.2923 12.8974 13.3334 12.9109 13.8741 12.2275L13.8957 12.2002" stroke="#09235F" stroke-width="0.602295" stroke-linecap="round"/>
<defs>
<filter id="filter0_ii_796_275" x="33.4964" y="3.5975" width="18.0071" height="17.8048" filterUnits="userSpaceOnUse" color-interpolation-filters="sRGB">
<feFlood flood-opacity="0" result="BackgroundImageFix"/>
<feBlend mode="normal" in="SourceGraphic" in2="BackgroundImageFix" result="shape"/>
<feColorMatrix in="SourceAlpha" type="matrix" values="0 0 0 0 0 0 0 0 0 0 0 0 0 0 0 0 0 0 127 0" result="hardAlpha"/>
<feOffset dx="0.240879" dy="-0.240879"/>
<feGaussianBlur stdDeviation="1.20439"/>
<feComposite in2="hardAlpha" operator="arithmetic" k2="-1" k3="1"/>
<feColorMatrix type="matrix" values="0 0 0 0 0.348088 0 0 0 0 0.493767 0 0 0 0 1 0 0 0 0.3 0"/>
<feBlend mode="normal" in2="shape" result="effect1_innerShadow_796_275"/>
<feColorMatrix in="SourceAlpha" type="matrix" values="0 0 0 0 0 0 0 0 0 0 0 0 0 0 0 0 0 0 127 0" result="hardAlpha"/>
<feOffset dx="-0.240879" dy="0.240879"/>
<feGaussianBlur stdDeviation="0.481757"/>
<feComposite in2="hardAlpha" operator="arithmetic" k2="-1" k3="1"/>
<feColorMatrix type="matrix" values="0 0 0 0 1 0 0 0 0 1 0 0 0 0 1 0 0 0 0.2 0"/>
<feBlend mode="normal" in2="effect1_innerShadow_796_275" result="effect2_innerShadow_796_275"/>
</filter>
<filter id="filter1_f_796_275" x="33.4315" y="6.7894" width="10.5901" height="10.5904" filterUnits="userSpaceOnUse" color-interpolation-filters="sRGB">
<feFlood flood-opacity="0" result="BackgroundImageFix"/>
<feBlend mode="normal" in="SourceGraphic" in2="BackgroundImageFix" result="shape"/>
<feGaussianBlur stdDeviation="1.98055" result="effect1_foregroundBlur_796_275"/>
</filter>
<filter id="filter2_f_796_275" x="41.6463" y="6.7894" width="10.5901" height="10.5904" filterUnits="userSpaceOnUse" color-interpolation-filters="sRGB">
<feFlood flood-opacity="0" result="BackgroundImageFix"/>
<feBlend mode="normal" in="SourceGraphic" in2="BackgroundImageFix" result="shape"/>
<feGaussianBlur stdDeviation="1.98055" result="effect1_foregroundBlur_796_275"/>
</filter>
<filter id="filter3_ii_796_275" x="18.4964" y="3.5975" width="18.0071" height="17.8048" filterUnits="userSpaceOnUse" color-interpolation-filters="sRGB">
<feFlood flood-opacity="0" result="BackgroundImageFix"/>
<feBlend mode="normal" in="SourceGraphic" in2="BackgroundImageFix" result="shape"/>
<feColorMatrix in="SourceAlpha" type="matrix" values="0 0 0 0 0 0 0 0 0 0 0 0 0 0 0 0 0 0 127 0" result="hardAlpha"/>
<feOffset dx="0.240879" dy="-0.240879"/>
<feGaussianBlur stdDeviation="1.20439"/>
<feComposite in2="hardAlpha" operator="arithmetic" k2="-1" k3="1"/>
<feColorMatrix type="matrix" values="0 0 0 0 0.348088 0 0 0 0 0.493767 0 0 0 0 1 0 0 0 0.3 0"/>
<feBlend mode="normal" in2="shape" result="effect1_innerShadow_796_275"/>
<feColorMatrix in="SourceAlpha" type="matrix" values="0 0 0 0 0 0 0 0 0 0 0 0 0 0 0 0 0 0 127 0" result="hardAlpha"/>
<feOffset dx="-0.240879" dy="0.240879"/>
<feGaussianBlur stdDeviation="0.481757"/>
<feComposite in2="hardAlpha" operator="arithmetic" k2="-1" k3="1"/>
<feColorMatrix type="matrix" values="0 0 0 0 1 0 0 0 0 1 0 0 0 0 1 0 0 0 0.2 0"/>
<feBlend mode="normal" in2="effect1_innerShadow_796_275" result="effect2_innerShadow_796_275"/>
</filter>
<filter id="filter4_f_796_275" x="18.4315" y="6.7894" width="10.5901" height="10.5904" filterUnits="userSpaceOnUse" color-interpolation-filters="sRGB">
<feFlood flood-opacity="0" result="BackgroundImageFix"/>
<feBlend mode="normal" in="SourceGraphic" in2="BackgroundImageFix" result="shape"/>
<feGaussianBlur stdDeviation="1.98055" result="effect1_foregroundBlur_796_275"/>
</filter>
<filter id="filter5_f_796_275" x="26.6463" y="6.7894" width="10.5901" height="10.5904" filterUnits="userSpaceOnUse" color-interpolation-filters="sRGB">
<feFlood flood-opacity="0" result="BackgroundImageFix"/>
<feBlend mode="normal" in="SourceGraphic" in2="BackgroundImageFix" result="shape"/>
<feGaussianBlur stdDeviation="1.98055" result="effect1_foregroundBlur_796_275"/>
</filter>
<filter id="filter6_ii_796_275" x="3.49643" y="3.5975" width="18.0071" height="17.8048" filterUnits="userSpaceOnUse" color-interpolation-filters="sRGB">
<feFlood flood-opacity="0" result="BackgroundImageFix"/>
<feBlend mode="normal" in="SourceGraphic" in2="BackgroundImageFix" result="shape"/>
<feColorMatrix in="SourceAlpha" type="matrix" values="0 0 0 0 0 0 0 0 0 0 0 0 0 0 0 0 0 0 127 0" result="hardAlpha"/>
<feOffset dx="0.240879" dy="-0.240879"/>
<feGaussianBlur stdDeviation="1.20439"/>
<feComposite in2="hardAlpha" operator="arithmetic" k2="-1" k3="1"/>
<feColorMatrix type="matrix" values="0 0 0 0 0.348088 0 0 0 0 0.493767 0 0 0 0 1 0 0 0 0.3 0"/>
<feBlend mode="normal" in2="shape" result="effect1_innerShadow_796_275"/>
<feColorMatrix in="SourceAlpha" type="matrix" values="0 0 0 0 0 0 0 0 0 0 0 0 0 0 0 0 0 0 127 0" result="hardAlpha"/>
<feOffset dx="-0.240879" dy="0.240879"/>
<feGaussianBlur stdDeviation="0.481757"/>
<feComposite in2="hardAlpha" operator="arithmetic" k2="-1" k3="1"/>
<feColorMatrix type="matrix" values="0 0 0 0 1 0 0 0 0 1 0 0 0 0 1 0 0 0 0.2 0"/>
<feBlend mode="normal" in2="effect1_innerShadow_796_275" result="effect2_innerShadow_796_275"/>
</filter>
<filter id="filter7_f_796_275" x="3.43149" y="6.7894" width="10.5901" height="10.5904" filterUnits="userSpaceOnUse" color-interpolation-filters="sRGB">
<feFlood flood-opacity="0" result="BackgroundImageFix"/>
<feBlend mode="normal" in="SourceGraphic" in2="BackgroundImageFix" result="shape"/>
<feGaussianBlur stdDeviation="1.98055" result="effect1_foregroundBlur_796_275"/>
</filter>
<filter id="filter8_f_796_275" x="11.6463" y="6.7894" width="10.5901" height="10.5904" filterUnits="userSpaceOnUse" color-interpolation-filters="sRGB">
<feFlood flood-opacity="0" result="BackgroundImageFix"/>
<feBlend mode="normal" in="SourceGraphic" in2="BackgroundImageFix" result="shape"/>
<feGaussianBlur stdDeviation="1.98055" result="effect1_foregroundBlur_796_275"/>
</filter>
<radialGradient id="paint0_radial_796_275" cx="0" cy="0" r="1" gradientTransform="matrix(-2.51138 10.6036 -10.743 -2.6589 43.8217 9.32449)" gradientUnits="userSpaceOnUse">
<stop stop-color="#EEF1FF"/>
<stop offset="1" stop-color="#5178FF"/>
</radialGradient>
<radialGradient id="paint1_radial_796_275" cx="0" cy="0" r="1" gradientTransform="matrix(-3.92024 10.3588 -10.4799 -4.08719 45.0368 9.10554)" gradientUnits="userSpaceOnUse">
<stop stop-color="#EAECFF"/>
<stop offset="1" stop-color="#EAECFF" stop-opacity="0"/>
</radialGradient>
<radialGradient id="paint2_radial_796_275" cx="0" cy="0" r="1" gradientTransform="matrix(-2.51138 10.6036 -10.743 -2.6589 28.8217 9.32449)" gradientUnits="userSpaceOnUse">
<stop stop-color="#EEF1FF"/>
<stop offset="1" stop-color="#5178FF"/>
</radialGradient>
<radialGradient id="paint3_radial_796_275" cx="0" cy="0" r="1" gradientTransform="matrix(-3.92024 10.3588 -10.4799 -4.08719 30.0368 9.10554)" gradientUnits="userSpaceOnUse">
<stop stop-color="#EAECFF"/>
<stop offset="1" stop-color="#EAECFF" stop-opacity="0"/>
</radialGradient>
<radialGradient id="paint4_radial_796_275" cx="0" cy="0" r="1" gradientTransform="matrix(-2.51138 10.6036 -10.743 -2.6589 13.8217 9.32449)" gradientUnits="userSpaceOnUse">
<stop stop-color="#EEF1FF"/>
<stop offset="1" stop-color="#5178FF"/>
</radialGradient>
<radialGradient id="paint5_radial_796_275" cx="0" cy="0" r="1" gradientTransform="matrix(-3.92024 10.3588 -10.4799 -4.08719 15.0368 9.10554)" gradientUnits="userSpaceOnUse">
<stop stop-color="#EAECFF"/>
<stop offset="1" stop-color="#EAECFF" stop-opacity="0"/>
</radialGradient>
</defs>
</svg>
