<svg width="44" height="44" viewBox="0 0 44 44" fill="none" xmlns="http://www.w3.org/2000/svg">
<path d="M19.1293 22.0042L26.6621 29.5369C26.8607 29.7356 26.9576 29.9695 26.9526 30.2387C26.9474 30.508 26.8455 30.742 26.6468 30.9407C26.448 31.1393 26.214 31.2387 25.9448 31.2387C25.6756 31.2387 25.4416 31.1393 25.2428 30.9407L17.5718 23.2849C17.391 23.1041 17.257 22.9015 17.1698 22.6772C17.0826 22.4528 17.0391 22.2285 17.0391 22.0042C17.0391 21.7798 17.0826 21.5555 17.1698 21.3312C17.257 21.1068 17.391 20.9042 17.5718 20.7234L25.2428 13.0522C25.4416 12.8535 25.6782 12.7567 25.9526 12.7619C26.2269 12.7671 26.4634 12.869 26.6621 13.0677C26.8607 13.2663 26.9601 13.5003 26.9601 13.7697C26.9601 14.0388 26.8607 14.2727 26.6621 14.4714L19.1293 22.0042Z" fill="#1C1B1F"/>
</svg>
