<svg width="32" height="32" viewBox="0 0 32 32" fill="none" xmlns="http://www.w3.org/2000/svg">
<path d="M16 32C24.8366 32 32 24.8366 32 16C32 7.16344 24.8366 0 16 0C7.16344 0 0 7.16344 0 16C0 24.8366 7.16344 32 16 32Z" fill="#3F73FF" fill-opacity="0.4"/>
<path d="M16.0003 23.6803C20.2419 23.6803 23.6803 20.2419 23.6803 16.0003C23.6803 11.7588 20.2419 8.32031 16.0003 8.32031C11.7588 8.32031 8.32031 11.7588 8.32031 16.0003C8.32031 20.2419 11.7588 23.6803 16.0003 23.6803Z" fill="white"/>
<path d="M16.0016 22.3996C19.5362 22.3996 22.4016 19.5342 22.4016 15.9996C22.4016 12.465 19.5362 9.59961 16.0016 9.59961C12.4669 9.59961 9.60156 12.465 9.60156 15.9996C9.60156 19.5342 12.4669 22.3996 16.0016 22.3996Z" fill="#3F73FF"/>
</svg>
