<svg width="293" height="293" viewBox="0 0 293 293" fill="none" xmlns="http://www.w3.org/2000/svg">
<mask id="path-1-inside-1_1190_7889" fill="white">
<path d="M293 146.5C293 227.41 227.41 293 146.5 293C65.5903 293 0 227.41 0 146.5C0 65.5903 65.5903 0 146.5 0C227.41 0 293 65.5903 293 146.5ZM9.70087 146.5C9.70087 222.052 70.9479 283.299 146.5 283.299C222.052 283.299 283.299 222.052 283.299 146.5C283.299 70.9479 222.052 9.70087 146.5 9.70087C70.9479 9.70087 9.70087 70.9479 9.70087 146.5Z"/>
</mask>
<path d="M293 146.5C293 227.41 227.41 293 146.5 293C65.5903 293 0 227.41 0 146.5C0 65.5903 65.5903 0 146.5 0C227.41 0 293 65.5903 293 146.5ZM9.70087 146.5C9.70087 222.052 70.9479 283.299 146.5 283.299C222.052 283.299 283.299 222.052 283.299 146.5C283.299 70.9479 222.052 9.70087 146.5 9.70087C70.9479 9.70087 9.70087 70.9479 9.70087 146.5Z" stroke="#D2FF3E" stroke-width="20" mask="url(#path-1-inside-1_1190_7889)"/>
</svg>
