<svg width="80" height="81" viewBox="0 0 80 81" fill="none" xmlns="http://www.w3.org/2000/svg">
<g opacity="0.6">
<path d="M59.9805 55C59.9805 54.9961 56.5412 58.3784 55.463 59C51.1263 61.5 48.9844 61.5 48.9844 61.5C48.9844 61.5 49.0356 63.3556 49.2298 64.0478C49.4027 64.664 49.5992 65.2535 49.7965 65.8453C49.9937 66.4371 50.1468 67.0429 50.3875 67.6184C50.635 68.2102 50.8856 68.816 51.1263 69.3915C51.3738 69.9832 51.7441 70.6864 52.1613 71.3123C52.5559 71.9041 52.9033 72.529 53.4668 73.2088C53.9359 73.7747 54.2764 74.4379 55.463 75.3269C56.1523 75.8433 56.761 76.1979 57.3336 76.5075C57.9254 76.8274 58.4681 77.3152 59.1067 77.3689C60.8539 77.5159 63.7211 77.4962 64.3033 77.1945C65.0177 76.8244 65.5727 76.3906 66.3224 75.7901C66.9385 75.2966 67.3836 74.7352 67.6759 74.1153C68.1206 73.1718 68.7164 69.5703 68.2647 67.8592C68.0172 66.9217 67.9929 65.6934 66.0202 62.3878C65.2571 61.1089 64.7111 59.7185 62.8117 57.8029C60.1358 55.1041 59.9805 55 59.9805 55Z" fill="#202225"/>
<path d="M31.3037 75.1598C31.1206 75.6654 29.6372 76.7584 29.5972 76.9997C29.3523 77.2034 29.2322 77.2834 29.1104 77.3235C28.9885 77.3635 28.8685 77.3635 28.726 77.4047C27.1504 77.606 24.7353 77.5827 24.2605 77.4641C23.6925 77.3222 22.9684 77.1575 22.4006 76.9991C21.6725 76.796 21.0973 76.5878 20.2988 76.2917C19.364 75.9449 18.2163 75.4311 17.6926 75.1598C17.1064 74.8561 16.657 74.4785 16.0358 74.1292C15.5302 73.8449 15.0288 73.4666 14.5196 73.0774C13.8328 72.5524 13.3117 72.2773 12.8634 71.8856C12.3778 71.4612 11.7233 71.1434 10.153 69.417C9.14055 68.304 8.26459 67.4639 7.8511 66.689C7.20547 65.4789 6.66592 64.6093 6.09364 62.9903C5.62927 61.6766 5.3059 59.3786 5.69232 57.8392C5.91541 56.9505 6.17434 56.3962 6.4404 55.8805C6.76413 55.253 7.20603 54.6405 7.7341 53.9812C8.13906 53.4756 8.72959 52.8402 9.35092 52.4056C9.96018 51.9794 10.684 51.5781 11.1696 51.4162C11.6552 51.2543 12.2 50.85 13.6661 50.8506C16.83 50.8518 17.8034 50.9914 18.6074 51.1749C19.4974 51.378 20.1693 51.5572 20.6268 51.8018C21.1948 52.1055 21.9834 52.4127 22.4867 52.813C23.1736 53.3592 23.7929 53.7836 24.7704 54.7335C25.4797 55.4228 26.197 56.233 26.8522 57.059C27.7009 58.129 28.2456 58.788 28.649 59.3202C29.1559 59.9889 29.6834 60.7373 30.1246 61.382C30.6084 62.0889 31.144 62.4817 31.579 63.7875C31.8208 64.5138 32.0294 65.15 32.144 65.8081C32.3058 66.7375 32.6867 69.851 32.1448 72.0713C31.9217 72.9855 31.6453 74.2164 31.3037 75.1598Z" fill="#202225"/>
<path d="M62.918 46.7334C62.918 48.2234 62.7697 51.24 62.5069 51.9633C62.2117 52.7759 62.0959 53.495 61.6096 54.4776C61.2314 55.2419 60.5999 55.9234 59.6274 57.0501C58.9513 57.8333 58.2055 58.4109 57.4924 59.0466C56.7112 59.743 55.5865 60.3745 54.6106 60.927C53.7578 61.4097 52.2937 61.7067 50.7944 62.2852C49.4758 62.7939 48.1742 62.8064 47.1612 63.038C46.0799 63.2852 45.0296 63.5003 44.0537 63.5879C43.1409 63.6698 42.1096 63.8472 41.0966 63.9348C38.2422 64.1816 33.7225 63.9652 32.6365 63.8776C31.4677 63.7833 30.1287 63.6182 29.2291 63.3867C28.3492 63.1602 27.4333 63.0978 26.5337 62.8663C25.6341 62.6347 24.7379 62.404 23.8383 62.1724C22.9141 61.9345 22.0425 61.5367 21.143 60.9885C20.3095 60.4807 19.4954 60.0935 18.7093 59.5427C17.9467 59.0086 17.6985 58.1854 17.3223 57.4907C16.9564 56.8151 16.7237 56.1038 16.4238 55.4091C16.1239 54.7144 15.8252 54.0223 15.7118 53.3276C15.5242 52.5756 15.4501 51.939 15.3378 50.9919C15.2996 50.2165 15.2996 48.8427 15.2996 47.4272" stroke="#202225" stroke-width="3" stroke-linecap="round"/>
<path d="M42.9062 33.7607V36.3624" stroke="#202225" stroke-width="3" stroke-linecap="round"/>
<path d="M34.0586 33.7607V36.3624" stroke="#202225" stroke-width="3" stroke-linecap="round"/>
<path d="M58.8945 27.3509C58.8945 25.1244 58.6474 20.2426 58.4891 19.2399C58.2874 17.9617 57.6474 16.7447 57.3974 15.7447C57.1434 14.7286 56.5875 13.8722 55.964 12.7814C54.9603 11.0258 54.4041 10.3143 53.6542 9.40891C52.9341 8.53965 51.5391 7.07476 50.4708 6.19278C49.7095 5.56429 48.7864 5.00745 48.0056 4.6629C47.0723 4.25109 46.3521 3.82024 45.4467 3.60115C44.6814 3.41596 42.929 3.38206 41.6697 3.56838C40.7522 3.70414 39.7981 4.37827 39.079 4.90914C38.3671 5.43476 37.8619 6.31075 37.5482 7.12438C37.2639 7.862 37.1728 11.8348 37.3282 14.4265C37.3998 15.6198 37.8581 17.2316 38.1081 18.2652C38.4149 19.5336 38.7308 20.913 39.0444 22.0731C39.1551 22.4825 39.2944 22.8549 39.3571 23.0431C39.5505 23.6232 38.6109 21.7369 37.4602 20.2117C35.4618 17.5628 34.3677 17.2428 33.6177 16.5237C32.8918 15.8277 31.9333 15.183 30.7171 14.4639C29.8573 13.9556 28.5065 13.1868 26.6939 12.4359C24.1611 11.3867 22.8214 10.936 21.8524 10.8414C19.9608 10.6568 16.9528 10.9322 16.0474 11.2768C15.1958 11.6009 14.1477 12.7374 13.424 13.7402C12.7805 14.6316 12.8931 15.6736 12.674 16.9825C12.2505 19.5125 13.1403 20.5422 13.4212 21.5113C13.7666 22.7032 15.0091 24.3473 15.6364 25.3192C16.4101 26.5178 17.3835 27.9089 18.2561 29.0315C19.2385 30.2953 20.2523 31.4031 20.9105 32.1859C21.0532 32.3556 21.2522 32.4667 21.255 32.4995C21.3034 33.064 19.8253 32.1596 18.8563 31.9705C18.0299 31.8092 17.3273 31.5342 16.5465 31.2842C15.5942 30.9794 14.7057 30.9088 13.585 30.7533C10.9835 30.3926 9.71723 31.1559 8.6817 31.6868C7.68592 32.1973 6.90463 33.0884 6.43275 33.9021C6.00481 34.6399 5.90094 37.0058 6.27358 38.7389C6.48664 39.7298 7.58251 40.5787 8.42516 41.6404C9.53812 43.0428 10.5786 43.5149 12.8828 45.4137C13.5747 45.9492 13.9511 46.2619 14.3865 46.6664C14.6365 46.8855 14.9454 47.1327 15.6383 47.2001" stroke="#202225" stroke-width="3" stroke-linecap="round"/>
<path d="M58.9336 27.8987C59.0229 27.8987 59.2922 27.854 59.6975 27.7194C60.3957 27.4874 60.7795 26.3262 61.0982 25.6001C61.3508 25.0247 62.4873 22.2393 64.317 20.346C65.8679 18.7412 68.1711 19.6437 69.5305 19.8007C70.2246 19.8808 70.7938 20.4529 71.8087 21.4442C72.5358 22.1543 73.051 23.1595 73.6147 24.3078C74.038 25.1702 74.1337 26.2233 74.338 28.0015C74.7587 31.6625 74.1364 32.6731 73.8434 33.9391C73.6245 34.885 72.7452 37.1281 72.1741 38.5646C71.8797 39.3052 71.3405 40.0755 70.9568 40.7968C70.4022 41.8396 69.9412 42.6468 69.6036 43.1888C69.2068 43.8257 68.4553 44.36 67.845 44.858C67.1633 45.4142 63.3905 46.4254 62.8485 46.7867" stroke="#202225" stroke-width="3" stroke-linecap="round"/>
<path d="M33.7773 42.0068C33.8085 42.1948 33.9965 42.5718 34.2488 43.0286C34.4715 43.4319 34.7844 43.7055 35.0513 44.115C35.6044 44.9637 36.3584 45.6895 36.7046 45.9738C36.8797 46.1176 37.1765 46.1637 37.5067 46.1325C38.0124 46.0848 38.4047 45.6611 38.7831 45.3933C39.2488 45.0637 39.7274 44.7164 40.4033 44.1037C41.0852 43.4857 41.4903 43.1424 41.9792 42.7012C42.0902 42.6058 42.1837 42.5435 42.2787 42.4646C42.3736 42.3857 42.4671 42.2921 42.658 42.1013" stroke="#202225" stroke-width="3" stroke-linecap="round"/>
</g>
</svg>
