<svg width="50" height="50" viewBox="0 0 50 50" fill="none" xmlns="http://www.w3.org/2000/svg">
<g clip-path="url(#clip0_5082_27173)">
<g filter="url(#filter0_ii_5082_27173)">
<ellipse cx="24.8732" cy="25.0003" rx="22.7872" ry="22.5237" fill="url(#paint0_radial_5082_27173)"/>
<ellipse cx="24.8732" cy="25.0003" rx="22.7872" ry="22.5237" fill="url(#paint1_radial_5082_27173)" fill-opacity="0.5"/>
</g>
<g style="mix-blend-mode:plus-darker">
<g filter="url(#filter1_f_5082_27173)">
<circle cx="15.0788" cy="23.8991" r="3.46938" fill="#4B3EFF" fill-opacity="0.2"/>
</g>
<g filter="url(#filter2_f_5082_27173)">
<circle cx="36.4225" cy="23.8991" r="3.46938" fill="#4B3EFF" fill-opacity="0.2"/>
</g>
</g>
<path d="M29.4483 21.6929C29.1804 21.5997 29.0724 21.1944 29.3143 20.4717C29.5562 19.7489 30.1768 19.0087 31.4237 18.702C32.6706 18.3954 33.8019 19.1703 34.1192 19.8006C34.4365 20.4309 34.2326 20.8418 34.0524 21.0007C33.8722 21.1596 33.48 21.2291 33.2009 20.9138C32.9218 20.5984 32.4913 20.3056 31.7818 20.3056C31.0722 20.3056 30.3509 21.2313 30.1683 21.4621C29.9856 21.6929 29.7162 21.7862 29.4483 21.6929Z" fill="#09235F"/>
<ellipse cx="1.50574" cy="1.80689" rx="1.50574" ry="1.80689" transform="matrix(-1 0 0 1 23.6406 18.6328)" fill="#09235F"/>
<path d="M25.9453 28.4466H38.4146C40.1271 28.4466 42.1565 28.4466 42.811 26.324C43.2103 25.0279 42.6264 22.7312 40.1271 23.1524C39.6799 23.2758 38.8385 23.5672 38.6001 24.7903" stroke="white" stroke-width="1.74255" stroke-linecap="round"/>
<path d="M21.9531 26.3696C23.3929 25.9787 26.5518 26.6488 24.8329 30.7993" stroke="#09235F" stroke-width="1.34043" stroke-linecap="round" stroke-linejoin="round"/>
<g filter="url(#filter3_d_5082_27173)">
<rect x="45.9141" y="21.7266" width="3.37986" height="4.02128" transform="rotate(-96.756 45.9141 21.7266)" fill="#D2FF3E"/>
<rect x="39.9297" y="17.1016" width="2.63238" height="3.13194" transform="rotate(-51.9616 39.9297 17.1016)" fill="#3E4FFF"/>
<rect x="45.5234" y="13.2969" width="2.14748" height="2.55502" transform="rotate(-67.4647 45.5234 13.2969)" fill="#4DC5FF"/>
</g>
<path d="M33.8425 29.3374L35.5547 27.5859H33.8412L32.129 29.3374H33.8425Z" fill="#3E4FFF"/>
<path d="M30.4206 29.3374L32.1328 27.5859H30.4194L28.7072 29.3374H30.4206Z" fill="#3E4FFF"/>
</g>
<defs>
<filter id="filter0_ii_5082_27173" x="1.78479" y="2.17541" width="46.1804" height="45.6492" filterUnits="userSpaceOnUse" color-interpolation-filters="sRGB">
<feFlood flood-opacity="0" result="BackgroundImageFix"/>
<feBlend mode="normal" in="SourceGraphic" in2="BackgroundImageFix" result="shape"/>
<feColorMatrix in="SourceAlpha" type="matrix" values="0 0 0 0 0 0 0 0 0 0 0 0 0 0 0 0 0 0 127 0" result="hardAlpha"/>
<feOffset dx="0.301148" dy="-0.301148"/>
<feGaussianBlur stdDeviation="1.50574"/>
<feComposite in2="hardAlpha" operator="arithmetic" k2="-1" k3="1"/>
<feColorMatrix type="matrix" values="0 0 0 0 0.348088 0 0 0 0 0.493767 0 0 0 0 1 0 0 0 0.3 0"/>
<feBlend mode="normal" in2="shape" result="effect1_innerShadow_5082_27173"/>
<feColorMatrix in="SourceAlpha" type="matrix" values="0 0 0 0 0 0 0 0 0 0 0 0 0 0 0 0 0 0 127 0" result="hardAlpha"/>
<feOffset dx="-0.301148" dy="0.301148"/>
<feGaussianBlur stdDeviation="0.602295"/>
<feComposite in2="hardAlpha" operator="arithmetic" k2="-1" k3="1"/>
<feColorMatrix type="matrix" values="0 0 0 0 1 0 0 0 0 1 0 0 0 0 1 0 0 0 0.2 0"/>
<feBlend mode="normal" in2="effect1_innerShadow_5082_27173" result="effect2_innerShadow_5082_27173"/>
</filter>
<filter id="filter1_f_5082_27173" x="6.6572" y="15.4775" width="16.8418" height="16.8418" filterUnits="userSpaceOnUse" color-interpolation-filters="sRGB">
<feFlood flood-opacity="0" result="BackgroundImageFix"/>
<feBlend mode="normal" in="SourceGraphic" in2="BackgroundImageFix" result="shape"/>
<feGaussianBlur stdDeviation="2.47609" result="effect1_foregroundBlur_5082_27173"/>
</filter>
<filter id="filter2_f_5082_27173" x="28.001" y="15.4775" width="16.8418" height="16.8418" filterUnits="userSpaceOnUse" color-interpolation-filters="sRGB">
<feFlood flood-opacity="0" result="BackgroundImageFix"/>
<feBlend mode="normal" in="SourceGraphic" in2="BackgroundImageFix" result="shape"/>
<feGaussianBlur stdDeviation="2.47609" result="effect1_foregroundBlur_5082_27173"/>
</filter>
<filter id="filter3_d_5082_27173" x="38.5893" y="10.6423" width="12.6574" height="13.0949" filterUnits="userSpaceOnUse" color-interpolation-filters="sRGB">
<feFlood flood-opacity="0" result="BackgroundImageFix"/>
<feColorMatrix in="SourceAlpha" type="matrix" values="0 0 0 0 0 0 0 0 0 0 0 0 0 0 0 0 0 0 127 0" result="hardAlpha"/>
<feOffset dy="0.670213"/>
<feGaussianBlur stdDeviation="0.670213"/>
<feComposite in2="hardAlpha" operator="out"/>
<feColorMatrix type="matrix" values="0 0 0 0 0 0 0 0 0 0 0 0 0 0 0 0 0 0 0.1 0"/>
<feBlend mode="normal" in2="BackgroundImageFix" result="effect1_dropShadow_5082_27173"/>
<feBlend mode="normal" in="SourceGraphic" in2="effect1_dropShadow_5082_27173" result="shape"/>
</filter>
<radialGradient id="paint0_radial_5082_27173" cx="0" cy="0" r="1" gradientTransform="matrix(-6.53065 27.5739 -27.9364 -6.91427 28.3098 16.7428)" gradientUnits="userSpaceOnUse">
<stop stop-color="#EEF1FF"/>
<stop offset="1" stop-color="#5178FF"/>
</radialGradient>
<radialGradient id="paint1_radial_5082_27173" cx="0" cy="0" r="1" gradientTransform="matrix(-10.1943 26.9372 -27.2523 -10.6284 31.4695 16.1734)" gradientUnits="userSpaceOnUse">
<stop stop-color="#EAECFF"/>
<stop offset="1" stop-color="#EAECFF" stop-opacity="0"/>
</radialGradient>
<clipPath id="clip0_5082_27173">
<rect width="50" height="50" fill="white"/>
</clipPath>
</defs>
</svg>
